<svg xmlns="http://www.w3.org/2000/svg"  viewBox="0 0 24 24" width="24px" height="24px"><path d="M 7.1386719 1 C 6.3106719 1 4.768375 0.9995 3.484375 2.6875 C 1.291375 5.5725 2.157875 11.185469 2.421875 12.605469 C 1.114875 14.428469 0.67975 16.506625 1.21875 18.515625 C 1.77175 20.577625 3.2994375 22.231922 5.5234375 23.169922 C 5.9644375 23.355922 6.4254844 23.496187 6.8964844 23.617188 C 6.9464844 23.632188 6.9929688 23.652969 7.0429688 23.667969 C 7.1519687 23.698969 7.2718125 23.711281 7.3828125 23.738281 C 7.4308125 23.748281 7.4783438 23.758578 7.5273438 23.767578 C 8.1653438 23.908578 8.8340625 24 9.5390625 24 C 10.585062 24 11.68725 23.844156 12.78125 23.535156 C 13.04225 23.462156 13.285109 23.360484 13.537109 23.271484 C 13.564109 23.262484 13.592141 23.253141 13.619141 23.244141 C 14.496141 22.930141 15.308969 22.532594 16.042969 22.058594 C 16.078969 22.035594 16.112437 22.010328 16.148438 21.986328 C 16.497438 21.754328 16.825859 21.510047 17.130859 21.248047 C 17.342859 21.071047 17.546234 20.888266 17.740234 20.697266 C 17.763234 20.673266 17.791453 20.652906 17.814453 20.628906 C 17.830453 20.611906 17.842422 20.595125 17.857422 20.578125 C 18.149422 20.281125 18.429734 19.972531 18.677734 19.644531 C 20.134734 17.719531 20.631125 15.525891 20.078125 13.462891 C 19.712125 12.096891 18.886766 10.925672 17.759766 10.013672 C 18.856766 9.9796719 19.919703 9.89875 20.720703 9.71875 C 22.217703 9.38175 24 8.4073594 24 5.6933594 C 24 4.2093594 22.935 2 20 2 C 17.669 2 15.524344 2.6777187 13.902344 3.3867188 C 14.702344 4.8867188 15.184469 6.6792656 14.855469 8.1972656 C 14.608469 9.3342656 13.939875 10.173047 12.921875 10.623047 C 12.306875 10.895047 11.711438 11.009766 11.148438 11.009766 C 8.3294375 11.009766 6.2846406 8.1547656 6.1816406 8.0097656 C 5.8636406 7.5567656 5.9747813 6.9332344 6.4257812 6.6152344 C 6.8777812 6.2972344 7.4984062 6.4064688 7.8164062 6.8554688 C 7.8374062 6.8844687 9.9162813 9.7659688 12.113281 8.7929688 C 12.539281 8.6039687 12.791391 8.2794844 12.900391 7.7714844 C 13.141391 6.6644844 12.612406 4.9181719 11.691406 3.5761719 C 10.914406 2.5921719 9.1346719 1 7.1386719 1 z M 13.347656 14.558594 C 14.060656 14.558594 14.736656 14.647219 15.347656 14.824219 C 16.515656 15.161219 17.298094 15.799172 17.496094 16.576172 C 17.640094 17.142172 17.473828 17.808516 17.048828 18.478516 C 15.914828 19.954516 14.181297 21.065422 12.154297 21.607422 C 10.510297 22.046422 8.8493281 22.061781 7.3613281 21.675781 C 6.3013281 21.326781 5.5795781 20.725188 5.3925781 19.992188 C 4.9925781 18.418187 7.0316562 15.963031 10.597656 14.957031 C 11.535656 14.692031 12.469656 14.558594 13.347656 14.558594 z M 15 16 A 1 1.5 0 0 0 15 19 A 1 1.5 0 0 0 15 16 z M 8 18 A 1 1.5 0 0 0 8 21 A 1 1.5 0 0 0 8 18 z M 12.283203 19.302734 C 12.157984 19.289969 12.024219 19.294359 11.886719 19.318359 C 11.336719 19.414359 10.941859 19.791203 11.005859 20.158203 C 11.069859 20.525203 11.569141 20.744438 12.119141 20.648438 C 12.670141 20.551437 13.064 20.175594 13 19.808594 C 12.952 19.533344 12.658859 19.341031 12.283203 19.302734 z"/></svg>